<?xml version="1.0" standalone="no"?>
<!DOCTYPE svg PUBLIC "-//W3C//DTD SVG 20010904//EN"
 "http://www.w3.org/TR/2001/REC-SVG-20010904/DTD/svg10.dtd">
<svg version="1.0" xmlns="http://www.w3.org/2000/svg"
 width="548.000000pt" height="560.000000pt" viewBox="0 0 548.000000 560.000000"
 preserveAspectRatio="xMidYMid meet">
<metadata>
Created by potrace 1.15, written by Peter Selinger 2001-2017
</metadata>
<g transform="translate(0.000000,560.000000) scale(0.100000,-0.100000)"
fill="#000000" stroke="none">
<path d="M5385 5571 c-238 -85 -434 -255 -850 -736 -382 -443 -539 -578 -669
-579 -41 0 -53 5 -72 28 -60 69 -9 199 145 371 40 44 76 88 81 97 9 14 6 16
-18 8 -115 -34 -282 -121 -397 -207 -190 -142 -341 -316 -585 -673 -249 -364
-311 -430 -407 -430 -73 0 -143 76 -143 156 0 128 125 338 311 522 l94 93 -72
-30 c-284 -121 -555 -354 -747 -641 -55 -82 -93 -154 -190 -360 -92 -193 -163
-305 -240 -378 -72 -68 -133 -96 -196 -90 -62 6 -102 36 -134 100 -58 115 -23
231 143 478 28 41 46 76 41 78 -5 2 -66 -25 -136 -59 -462 -228 -866 -632
-1108 -1109 -114 -223 -173 -392 -213 -604 -26 -141 -23 -410 6 -546 49 -231
162 -440 329 -609 95 -97 165 -147 287 -209 575 -288 1359 -107 1860 431 182
196 284 339 389 545 l67 132 -73 -37 c-70 -36 -78 -38 -168 -38 -76 0 -105 5
-142 22 -121 55 -115 177 12 302 75 73 181 136 364 215 263 115 421 221 591
397 120 126 201 247 253 381 68 173 67 176 -27 76 -184 -196 -447 -368 -561
-368 -69 0 -108 47 -97 116 11 66 69 146 202 279 112 111 150 142 260 209 404
247 613 412 747 590 60 79 140 231 154 291 l7 29 -26 -17 c-14 -9 -64 -48
-112 -86 -113 -91 -189 -131 -248 -131 -81 0 -117 31 -117 102 0 82 67 156
269 299 341 241 443 331 523 459 59 94 87 168 149 395 28 99 63 207 78 240 57
122 230 321 389 446 42 34 79 63 81 65 11 10 -39 1 -84 -15z m-2809 -2908
c-25 -50 -167 -247 -225 -313 -31 -36 -104 -118 -163 -182 -154 -170 -199
-240 -200 -318 -1 -72 45 -106 132 -98 31 3 65 15 90 32 22 14 40 23 40 20 0
-4 -21 -38 -46 -77 -89 -135 -104 -177 -114 -336 -15 -214 -63 -408 -135 -537
-124 -222 -326 -379 -576 -446 -121 -32 -306 -30 -440 5 -173 45 -290 118
-441 275 -73 76 -95 106 -137 194 -79 165 -85 195 -86 403 0 164 2 186 24 250
27 80 86 199 130 264 42 63 145 166 216 216 164 117 336 172 615 199 209 20
233 26 400 106 80 37 147 66 149 64 3 -2 -11 -21 -31 -42 -62 -64 -88 -111
-88 -158 0 -55 33 -84 96 -84 39 0 51 7 146 86 120 100 199 154 323 220 72 39
114 72 210 166 66 65 121 118 123 118 1 0 -4 -12 -12 -27z"/>
</g>
</svg>
